<?xml version="1.0" standalone="no"?>
<!DOCTYPE svg PUBLIC "-//W3C//DTD SVG 20010904//EN"
 "http://www.w3.org/TR/2001/REC-SVG-20010904/DTD/svg10.dtd">
<svg version="1.0" xmlns="http://www.w3.org/2000/svg"
 width="500.000000pt" height="500.000000pt" viewBox="0 0 500.000000 500.000000"
 preserveAspectRatio="xMidYMid meet">

<g transform="translate(0.000000,500.000000) scale(0.100000,-0.100000)"
fill="#000000" stroke="none">
<path d="M4053 4930 c0 -41 2 -58 4 -37 2 20 2 54 0 75 -2 20 -4 3 -4 -38z"/>
<path d="M2450 4874 c-146 -29 -329 -130 -470 -261 -81 -75 -226 -269 -281
-378 -28 -54 -50 -85 -60 -85 -24 0 -79 -66 -79 -94 0 -28 -27 -48 -106 -75
-233 -82 -399 -296 -463 -596 -19 -85 -22 -141 -25 -380 -3 -225 -3 -248 4
-120 12 267 9 251 30 160 26 -110 41 -142 105 -221 30 -38 55 -74 55 -81 0 -7
13 -28 30 -46 25 -30 28 -38 21 -65 -5 -17 -7 -39 -5 -49 3 -10 -12 -63 -32
-118 -83 -228 -161 -497 -189 -650 -7 -38 -20 -97 -28 -130 -9 -33 -34 -163
-58 -290 -23 -126 -46 -247 -51 -267 l-9 -38 -72 -2 -72 -2 68 -3 c76 -4 77
-6 52 -89 -8 -27 -15 -59 -15 -70 0 -12 -6 -26 -12 -32 -10 -8 -20 2 -41 37
-18 30 -49 60 -86 84 -32 20 -60 37 -64 37 -3 0 -18 5 -34 12 l-28 12 40 6
c36 6 33 7 -25 9 -36 1 -92 8 -125 16 -33 8 -71 14 -85 14 -16 -1 -8 -5 20
-11 199 -43 326 -109 375 -193 24 -40 25 -46 11 -67 -8 -13 -24 -53 -35 -91
-28 -93 -33 -100 -132 -203 -48 -50 -91 -102 -94 -115 -12 -46 -316 -259 -350
-245 -12 4 -22 39 -31 113 -8 59 18 140 63 193 36 45 36 45 4 15 -73 -66 -96
-165 -67 -287 l13 -57 -58 -25 c-58 -25 -59 -26 -59 -67 0 -40 0 -41 31 -34
29 6 30 6 20 -13 -19 -36 -12 -37 14 -2 31 42 82 66 107 51 10 -6 26 -11 37
-11 20 0 120 38 135 52 6 4 23 8 40 8 37 0 146 30 146 40 0 4 -7 13 -15 20 -8
7 -15 16 -15 21 0 29 129 -14 193 -64 33 -25 37 -26 25 -7 -17 29 -143 90
-185 90 -33 0 -53 21 -53 55 0 8 31 46 68 83 38 37 89 91 114 120 l44 53 42
-84 c62 -126 149 -215 265 -272 95 -46 174 -65 276 -65 84 0 296 39 390 72
114 39 280 119 351 167 l58 40 108 -11 c128 -12 726 -4 794 11 43 9 48 8 105
-29 57 -37 223 -122 302 -155 l37 -15 -71 -34 c-39 -19 -74 -40 -79 -47 -4 -7
7 -4 27 7 19 11 59 30 91 43 l56 23 71 -26 c217 -78 360 -86 485 -28 38 18 90
47 115 65 69 49 67 49 63 7 -2 -21 2 -56 9 -77 17 -53 68 -133 85 -133 9 0 5
14 -16 46 -59 94 -76 210 -35 244 8 7 31 36 50 66 21 32 50 61 68 69 l32 14
-29 -6 c-26 -5 -28 -4 -21 13 24 58 37 104 41 149 10 97 7 93 66 83 29 -6 154
-11 278 -11 166 -2 231 -6 248 -15 13 -8 27 -10 30 -6 4 4 1 9 -5 11 -15 5
-17 33 -3 33 7 0 10 370 10 1091 l0 1092 -76 -7 c-41 -4 -87 -12 -102 -17 -35
-13 -74 -5 -164 32 -40 17 -93 38 -118 46 -86 27 -275 64 -298 58 -15 -4 -21
-2 -17 4 8 15 -36 24 -80 17 -35 -6 -37 -5 -31 16 33 116 38 158 33 278 -5
134 -32 239 -83 327 -21 36 -24 55 -25 145 l-2 103 -11 -83 -11 -83 -38 50
c-44 60 -125 126 -187 154 -25 11 -59 37 -77 57 -18 21 -46 43 -62 50 -17 7
-33 22 -37 34 -9 31 -55 76 -77 76 -13 0 -24 13 -35 43 -29 73 -111 237 -144
285 -127 188 -314 325 -525 388 -71 21 -114 27 -223 29 -74 2 -146 1 -160 -1z
m247 -18 c72 -6 235 -57 302 -93 223 -124 378 -310 476 -568 26 -69 25 -72
-23 -77 -20 -3 -27 6 -47 54 -35 80 -77 149 -155 253 -70 93 -196 222 -207
212 -3 -4 29 -41 71 -84 98 -99 194 -232 253 -351 25 -51 44 -95 42 -97 -2 -2
-16 -6 -30 -10 -23 -6 -27 -2 -37 32 -19 62 -125 233 -195 313 -36 42 -95 99
-130 128 -200 162 -494 197 -716 86 -67 -33 -206 -152 -292 -249 -44 -49 -151
-207 -175 -257 -17 -36 -45 -50 -58 -29 -3 4 -26 14 -51 21 -25 7 -45 14 -45
15 0 38 148 266 242 372 193 219 455 351 668 337 25 -2 73 -6 107 -8z m75
-181 c184 -40 395 -240 527 -501 40 -79 40 -97 -2 -112 -18 -7 -46 -25 -61
-41 l-29 -30 -40 20 c-75 39 -229 89 -320 106 -119 21 -343 21 -459 -1 -101
-19 -175 -44 -280 -93 l-77 -36 -40 36 c-30 27 -56 39 -100 49 -34 6 -61 16
-61 21 0 13 47 91 115 192 66 98 229 266 313 322 75 49 153 75 252 82 83 6
197 0 262 -14z m-1018 -568 l50 -23 -36 -21 c-43 -25 -67 -66 -62 -106 l3 -27
-31 17 c-16 10 -47 33 -68 51 -36 30 -38 35 -29 65 5 17 21 42 36 55 32 26 59
24 137 -11z m1809 -7 c31 -25 45 -81 28 -116 -10 -23 -40 -41 -97 -58 -20 -6
-21 -4 -16 39 5 51 -10 91 -40 101 -29 9 -21 19 30 36 63 21 65 21 95 -2z
m-115 -67 c21 -29 15 -90 -10 -107 -30 -21 -54 -20 -78 4 -25 25 -27 91 -3
115 20 20 72 13 91 -12z m-1594 1 c12 -32 5 -63 -20 -93 -27 -33 -73 -42 -92
-18 -42 50 -1 127 68 127 25 0 40 -5 44 -16z m-158 -117 c54 -30 61 -37 77
-87 11 -32 23 -110 28 -189 9 -125 8 -144 -16 -273 -29 -159 -51 -230 -102
-332 -77 -153 -160 -254 -272 -330 -53 -36 -54 -36 -75 -18 -30 27 -61 32 -87
14 -21 -14 -24 -14 -46 13 l-25 28 79 37 c111 53 186 137 271 305 54 108 80
202 97 348 25 213 -4 430 -72 533 -14 21 -14 27 -3 34 9 6 26 -1 51 -21 20
-16 63 -44 95 -62z m1970 72 c19 -11 34 -24 34 -27 0 -4 -18 -14 -39 -23 -78
-33 -118 -183 -108 -406 13 -289 117 -570 269 -726 52 -53 61 -58 88 -52 36 8
38 -2 8 -41 -51 -66 -96 -92 -137 -79 -39 12 -120 84 -165 148 -171 240 -272
720 -207 989 24 103 35 117 112 142 54 18 67 27 84 59 11 20 22 37 24 37 2 0
19 -9 37 -21z m-2117 -56 c55 -109 79 -290 62 -466 -16 -153 -41 -249 -94
-362 -81 -172 -177 -277 -295 -322 l-45 -17 -43 48 c-87 96 -134 248 -134 435
0 170 62 362 158 491 83 110 259 230 338 230 29 0 36 -5 53 -37z m2224 -31
c115 -53 214 -159 288 -308 110 -225 88 -552 -50 -733 -28 -38 -97 -91 -116
-91 -35 0 -161 163 -206 266 -77 177 -109 315 -116 500 -8 200 21 338 80 379
30 21 48 19 120 -13z m-1457 -166 c70 -32 125 -84 158 -151 26 -50 28 -62 24
-138 -5 -94 -20 -128 -84 -197 -59 -63 -146 -102 -239 -108 -162 -10 -300 64
-345 186 -19 49 -19 61 -9 145 13 107 38 159 102 210 106 87 270 109 393 53z
m865 -7 c68 -32 131 -88 164 -143 33 -57 45 -206 21 -269 -31 -83 -148 -168
-246 -181 -44 -6 -46 -5 -81 42 -43 56 -111 96 -211 121 -67 17 -74 22 -92 57
-25 48 -33 149 -16 209 20 73 109 161 188 185 15 5 70 8 122 7 79 -2 105 -7
151 -28z m986 -751 c-28 -7 -42 -7 -50 1 -8 8 2 11 39 10 l49 -1 -38 -10z
m706 -150 c-6 -11 -43 -10 -43 1 0 5 11 8 24 7 13 0 22 -4 19 -8z m114 5 c-10
-10 -86 -13 -92 -4 -2 4 19 9 47 10 29 1 49 -2 45 -6z m-3987 -1493 c4 0 13
-39 19 -87 7 -49 14 -105 17 -125 6 -37 5 -38 -28 -39 l-33 -2 35 -6 c29 -5
35 -11 41 -41 4 -19 5 -38 3 -42 -5 -7 -36 -13 -112 -22 l-44 -4 7 36 c10 52
23 72 48 73 21 2 21 2 -2 6 -26 5 -26 1 3 138 8 39 18 93 22 120 6 38 9 44 12
23 2 -16 7 -28 12 -28z m90 -669 c15 -28 12 -51 -5 -51 -17 0 -35 38 -28 58 7
18 21 15 33 -7z m3080 1 c0 -23 -19 -42 -42 -42 -21 0 -24 30 -6 48 18 18 48
15 48 -6z m-175 -44 c-13 -45 -75 -78 -75 -40 0 30 29 62 56 62 22 0 24 -3 19
-22z m-3045 -58 c0 -20 -5 -30 -15 -30 -19 0 -40 43 -31 65 10 27 46 0 46 -35z
m324 24 c12 -31 7 -56 -11 -52 -23 4 -32 68 -10 68 8 0 18 -7 21 -16z m2980 7
c8 -12 -30 -58 -40 -48 -8 8 15 57 27 57 4 0 10 -4 13 -9z m-3694 -101 c-22
-31 -40 -46 -40 -34 0 8 51 64 58 64 2 0 -6 -13 -18 -30z m594 -48 c27 -29 43
-88 29 -108 -19 -28 -53 -26 -83 4 -35 35 -47 75 -31 108 15 33 51 31 85 -4z
m2932 -13 c3 -27 -27 -79 -55 -94 -58 -30 -82 29 -35 85 21 24 33 30 57 28 19
-2 31 -9 33 -19z m-3595 -249 c5 0 9 -4 9 -10 0 -5 -10 -10 -23 -10 -13 0 -70
-16 -128 -36 -57 -20 -116 -38 -130 -41 -39 -7 -44 13 -8 26 34 12 225 136
236 153 3 6 13 -10 21 -35 8 -26 19 -47 23 -47z"/>
<path d="M2493 4793 c-13 -2 -23 -8 -23 -13 0 -5 35 -7 78 -5 95 4 90 3 72 15
-15 10 -84 11 -127 3z"/>
<path d="M2715 4780 c3 -5 12 -10 18 -10 7 -1 52 -16 100 -34 109 -42 110 -23
1 21 -79 32 -131 42 -119 23z"/>
<path d="M2236 4705 c-73 -44 -183 -131 -197 -156 -16 -30 -1 -22 59 32 32 28
94 73 140 101 45 28 82 53 82 55 0 11 -34 -2 -84 -32z"/>
<path d="M1943 4448 c-55 -61 -178 -270 -170 -290 2 -7 12 3 22 22 33 67 109
185 147 231 21 26 38 50 38 53 0 13 -17 5 -37 -16z"/>
<path d="M2193 3625 c-61 -26 -89 -106 -58 -165 46 -89 137 -104 210 -35 30
27 35 39 35 76 0 104 -92 166 -187 124z"/>
<path d="M2865 3640 c-85 -35 -100 -176 -24 -215 15 -8 48 -15 73 -15 39 0 51
5 81 35 28 29 35 43 35 76 0 94 -82 154 -165 119z"/>
<path d="M991 1218 c-1 -60 3 -108 8 -108 7 0 4 181 -4 205 -2 6 -4 -38 -4
-97z"/>
<path d="M973 4520 c0 -25 2 -35 4 -22 2 12 2 32 0 45 -2 12 -4 2 -4 -23z"/>
<path d="M4044 4340 c0 -124 2 -174 3 -112 2 61 2 163 0 225 -1 61 -3 11 -3
-113z"/>
<path d="M974 4055 c0 -93 2 -133 3 -88 2 45 2 122 0 170 -1 48 -3 12 -3 -82z"/>
<path d="M4030 4080 c0 -16 2 -30 4 -30 2 0 6 14 8 30 3 17 1 30 -4 30 -4 0
-8 -13 -8 -30z"/>
<path d="M971 3704 c0 -11 3 -14 6 -6 3 7 2 16 -1 19 -3 4 -6 -2 -5 -13z"/>
<path d="M973 3565 c0 -27 2 -38 4 -22 2 15 2 37 0 50 -2 12 -4 0 -4 -28z"/>
<path d="M971 3494 c0 -11 3 -14 6 -6 3 7 2 16 -1 19 -3 4 -6 -2 -5 -13z"/>
<path d="M964 2480 c0 -96 2 -136 3 -87 2 48 2 126 0 175 -1 48 -3 8 -3 -88z"/>
<path d="M960 2171 c0 -6 5 -13 10 -16 6 -3 10 1 10 9 0 9 -4 16 -10 16 -5 0
-10 -4 -10 -9z"/>
<path d="M973 2075 c0 -38 2 -53 4 -32 2 20 2 52 0 70 -2 17 -4 1 -4 -38z"/>
<path d="M978 1940 c2 -16 6 -30 8 -30 2 0 4 14 4 30 0 17 -4 30 -8 30 -5 0
-7 -13 -4 -30z"/>
<path d="M2 1278 c-2 -163 -1 -176 16 -172 9 3 78 9 152 13 l135 9 -147 -1
-148 -2 -3 165 -3 165 -2 -177z"/>
<path d="M648 1083 c7 -3 16 -2 19 1 4 3 -2 6 -13 5 -11 0 -14 -3 -6 -6z"/>
<path d="M0 862 c0 -8 21 -12 59 -12 32 0 87 -3 122 -6 49 -4 60 -3 46 6 -25
16 -227 26 -227 12z"/>
<path d="M40 830 c-24 -8 -24 -8 7 -9 17 -1 35 4 38 9 7 11 -9 11 -45 0z"/>
<path d="M305 818 c10 -7 32 -25 47 -40 24 -23 27 -30 18 -53 -16 -43 -59 -92
-112 -130 -61 -44 -57 -59 4 -17 72 50 128 118 128 157 0 42 -34 82 -75 90
-27 5 -28 5 -10 -7z"/>
<path d="M65 674 c-22 -8 -46 -17 -54 -19 -8 -3 -11 -8 -8 -11 7 -7 107 28
107 38 0 5 -1 8 -2 7 -2 0 -21 -7 -43 -15z"/>
<path d="M4883 561 c-100 -26 -136 -41 -97 -41 48 1 214 48 214 61 0 11 5 12
-117 -20z"/>
<path d="M4548 494 c-43 -7 -92 -20 -110 -29 -18 -8 -24 -13 -13 -10 28 6 214
43 245 48 18 3 15 4 -10 5 -19 0 -70 -6 -112 -14z"/>
<path d="M4925 290 c-38 -7 -38 -7 18 -9 32 0 57 3 57 9 0 11 -14 11 -75 0z"/>
<path d="M4708 280 c-26 -5 -67 -19 -90 -32 -40 -22 -43 -26 -46 -72 -3 -41 1
-53 24 -77 l26 -27 -48 -7 c-61 -7 -213 -41 -245 -54 -22 -9 -21 -10 13 -10
20 -1 49 4 65 10 15 6 72 19 126 29 54 10 101 20 104 23 3 4 -6 20 -21 37 -26
31 -35 90 -18 116 15 24 90 46 177 53 50 5 71 9 48 10 -23 0 -47 3 -55 5 -7 2
-34 0 -60 -4z"/>
<path d="M732 84 c-7 -8 -31 -14 -53 -14 -22 0 -49 -5 -60 -10 -19 -10 -19
-12 -2 -35 15 -20 24 -23 53 -19 60 10 71 15 81 41 12 32 0 57 -19 37z m3 -43
c-14 -13 -95 -25 -95 -14 0 18 13 23 59 23 27 0 41 -4 36 -9z"/>
<path d="M4839 44 c25 -9 55 -23 68 -31 13 -9 26 -13 30 -10 8 9 -97 57 -122
56 -11 0 0 -7 24 -15z"/>
<path d="M412 26 c-64 -16 -83 -31 -27 -22 22 3 69 9 105 13 45 4 58 9 45 14
-28 11 -62 9 -123 -5z"/>
</g>
</svg>
